<svg width="72" height="72" viewBox="0 0 72 72" fill="none"><rect width="72" height="72" rx="16" fill="#9CF27F"></rect><path d="M47.9377 37.4526L47.9377 37.4526L47.9316 37.4561L26.6284 49.7609C26.6282 49.7609 26.6281 49.761 26.628 49.7611C25.4492 50.4409 24 49.5943 24 48.304V23.6941C24 22.406 25.4469 21.558 26.6279 22.2403L26.628 22.2404L47.9316 34.5453L47.9316 34.5453L47.9377 34.5488C48.196 34.6956 48.4102 34.9074 48.5589 35.1624L49.4227 34.6586L48.5589 35.1624C48.7076 35.4174 48.7857 35.7066 48.7857 36.0007C48.7857 36.2949 48.7076 36.5841 48.5589 36.839C48.4102 37.094 48.196 37.3059 47.9377 37.4526Z" stroke="#169821" stroke-width="2"></path></svg>